<svg width="20" height="19" viewBox="0 0 20 19" fill="none" xmlns="http://www.w3.org/2000/svg">
<path fill-rule="evenodd" clip-rule="evenodd" d="M5.9944 6C5.9944 3.79086 7.78776 2 9.99998 2C12.2122 2 14.0056 3.79086 14.0056 6H5.9944ZM3.99161 6C3.99161 2.68629 6.68165 0 9.99998 0C13.3183 0 16.0083 2.68629 16.0083 6H17.4963C18.7843 6 19.7374 7.19649 19.4478 8.44972L17.368 17.4497C17.1583 18.3572 16.3491 19 15.4165 19H4.58348C3.65086 19 2.84168 18.3572 2.63198 17.4497L0.552155 8.44972C0.262544 7.19648 1.21569 6 2.50366 6H3.99161ZM16.2389 8C16.8821 8 17.358 8.59846 17.2132 9.22516L15.5956 16.2252C15.4908 16.6787 15.0868 17 14.6213 17H5.37874C4.9132 17 4.50924 16.6787 4.40442 16.2252L2.78678 9.22516C2.64196 8.59846 3.11789 8 3.7611 8H16.2389Z" fill="black"/>
</svg>
