<svg width="90" height="23" viewBox="0 0 90 23" fill="none" xmlns="http://www.w3.org/2000/svg">
<path d="M5.15967 22.1291V20.657C5.15967 20.0928 4.81899 19.7248 4.23497 19.7248C3.94295 19.7248 3.62661 19.8229 3.4076 20.1418C3.23726 19.872 2.99392 19.7248 2.6289 19.7248C2.38556 19.7248 2.14222 19.7984 1.94754 20.0682V19.7738H1.43652V22.1291H1.94754V20.8288C1.94754 20.4117 2.16655 20.2154 2.50723 20.2154C2.84791 20.2154 3.01825 20.4362 3.01825 20.8288V22.1291H3.52927V20.8288C3.52927 20.4117 3.77261 20.2154 4.08896 20.2154C4.42964 20.2154 4.59998 20.4362 4.59998 20.8288V22.1291H5.15967ZM12.7276 19.7738H11.9003V19.0624H11.3892V19.7738H10.9269V20.24H11.3892V21.3194C11.3892 21.8592 11.6082 22.1781 12.1923 22.1781C12.4113 22.1781 12.6546 22.1045 12.825 22.0064L12.679 21.5648C12.533 21.6629 12.3626 21.6875 12.2409 21.6875C11.9976 21.6875 11.9003 21.5403 11.9003 21.2949V20.24H12.7276V19.7738ZM17.0591 19.7248C16.7671 19.7248 16.5724 19.872 16.4508 20.0682V19.7738H15.9398V22.1291H16.4508V20.8042C16.4508 20.4117 16.6211 20.1909 16.9375 20.1909C17.0348 20.1909 17.1565 20.2154 17.2538 20.24L17.3998 19.7493C17.3025 19.7248 17.1565 19.7248 17.0591 19.7248ZM10.5132 19.9701C10.2699 19.7984 9.92919 19.7248 9.56417 19.7248C8.98015 19.7248 8.5908 20.0192 8.5908 20.4853C8.5908 20.8778 8.88281 21.0987 9.39383 21.1723L9.63717 21.1968C9.90485 21.2458 10.0509 21.3194 10.0509 21.4421C10.0509 21.6139 9.85618 21.7365 9.5155 21.7365C9.17482 21.7365 8.90715 21.6139 8.73681 21.4912L8.49346 21.8837C8.76114 22.08 9.12616 22.1781 9.49117 22.1781C10.1725 22.1781 10.5619 21.8592 10.5619 21.4176C10.5619 21.0005 10.2455 20.7797 9.75884 20.7061L9.5155 20.6816C9.29649 20.657 9.12616 20.608 9.12616 20.4608C9.12616 20.289 9.29649 20.1909 9.56417 20.1909C9.85618 20.1909 10.1482 20.3136 10.2942 20.3872L10.5132 19.9701ZM24.0917 19.7248C23.7997 19.7248 23.6051 19.872 23.4834 20.0682V19.7738H22.9724V22.1291H23.4834V20.8042C23.4834 20.4117 23.6537 20.1909 23.9701 20.1909C24.0674 20.1909 24.1891 20.2154 24.2864 20.24L24.4324 19.7493C24.3351 19.7248 24.1891 19.7248 24.0917 19.7248ZM17.5701 20.9514C17.5701 21.6629 18.0568 22.1781 18.8112 22.1781C19.1519 22.1781 19.3952 22.1045 19.6386 21.9083L19.3952 21.4912C19.2005 21.6384 19.0059 21.712 18.7869 21.712C18.3732 21.712 18.0812 21.4176 18.0812 20.9514C18.0812 20.5098 18.3732 20.2154 18.7869 20.1909C19.0059 20.1909 19.2005 20.2645 19.3952 20.4117L19.6386 19.9946C19.3952 19.7984 19.1519 19.7248 18.8112 19.7248C18.0568 19.7248 17.5701 20.24 17.5701 20.9514ZM22.291 20.9514V19.7738H21.78V20.0682C21.6096 19.8474 21.3663 19.7248 21.05 19.7248C20.3929 19.7248 19.8819 20.24 19.8819 20.9514C19.8819 21.6629 20.3929 22.1781 21.05 22.1781C21.3906 22.1781 21.634 22.0555 21.78 21.8347V22.1291H22.291V20.9514ZM20.4173 20.9514C20.4173 20.5344 20.6849 20.1909 21.123 20.1909C21.5366 20.1909 21.8286 20.5098 21.8286 20.9514C21.8286 21.3685 21.5366 21.712 21.123 21.712C20.6849 21.6875 20.4173 21.3685 20.4173 20.9514ZM14.3094 19.7248C13.628 19.7248 13.1413 20.2154 13.1413 20.9514C13.1413 21.6875 13.628 22.1781 14.3337 22.1781C14.6744 22.1781 15.015 22.08 15.2827 21.8592L15.0394 21.4912C14.8447 21.6384 14.6014 21.7365 14.358 21.7365C14.0417 21.7365 13.7253 21.5893 13.6523 21.1723H15.3801V20.976C15.4044 20.2154 14.9664 19.7248 14.3094 19.7248ZM14.3094 20.1664C14.6257 20.1664 14.8447 20.3626 14.8934 20.7306H13.6767C13.7253 20.4117 13.9443 20.1664 14.3094 20.1664ZM26.9875 20.9514V18.8416H26.4765V20.0682C26.3062 19.8474 26.0628 19.7248 25.7465 19.7248C25.0894 19.7248 24.5784 20.24 24.5784 20.9514C24.5784 21.6629 25.0894 22.1781 25.7465 22.1781C26.0871 22.1781 26.3305 22.0555 26.4765 21.8347V22.1291H26.9875V20.9514ZM25.1138 20.9514C25.1138 20.5344 25.3815 20.1909 25.8195 20.1909C26.2332 20.1909 26.5252 20.5098 26.5252 20.9514C26.5252 21.3685 26.2332 21.712 25.8195 21.712C25.3815 21.6875 25.1138 21.3685 25.1138 20.9514ZM8.03112 20.9514V19.7738H7.52009V20.0682C7.34975 19.8474 7.10641 19.7248 6.79007 19.7248C6.13304 19.7248 5.62201 20.24 5.62201 20.9514C5.62201 21.6629 6.13304 22.1781 6.79007 22.1781C7.13074 22.1781 7.37409 22.0555 7.52009 21.8347V22.1291H8.03112V20.9514ZM6.13304 20.9514C6.13304 20.5344 6.40071 20.1909 6.83873 20.1909C7.25241 20.1909 7.54443 20.5098 7.54443 20.9514C7.54443 21.3685 7.25241 21.712 6.83873 21.712C6.40071 21.6875 6.13304 21.3685 6.13304 20.9514Z" fill="#1D1D1D"/>
<path d="M18.0083 1.88916H10.3429V15.7752H18.0083V1.88916Z" fill="#FF5F00"/>
<path d="M10.8288 8.83236C10.8288 6.01099 12.1428 3.50856 14.1626 1.88934C12.6782 0.711723 10.8044 0.000244141 8.76035 0.000244141C3.91782 0.000244141 0 3.95016 0 8.83236C0 13.7146 3.91782 17.6645 8.76035 17.6645C10.8044 17.6645 12.6782 16.953 14.1626 15.7754C12.1428 14.1807 10.8288 11.6537 10.8288 8.83236Z" fill="#EB001B"/>
<path d="M28.3502 8.83209C28.3502 13.7143 24.4324 17.6642 19.5898 17.6642C17.5458 17.6642 15.672 16.9527 14.1876 15.7751C16.2317 14.1559 17.5214 11.6534 17.5214 8.83209C17.5214 6.01073 16.2074 3.5083 14.1876 1.88909C15.672 0.711477 17.5458 0 19.5898 0C24.4324 0 28.3502 3.97444 28.3502 8.83209Z" fill="#F79E1B"/>
<path d="M67.6231 8.38448C67.5975 10.4739 69.4271 11.64 70.8054 12.3332C72.2215 13.0446 72.6972 13.5007 72.6918 14.1368C72.681 15.1103 71.5621 15.54 70.5149 15.5567C68.6879 15.586 67.6258 15.0476 66.7813 14.6403L66.1232 17.8191C66.9705 18.2222 68.5393 18.5737 70.1662 18.5891C73.9849 18.5891 76.4834 16.6433 76.4969 13.6262C76.5118 9.79744 71.3662 9.58542 71.4013 7.87397C71.4135 7.35509 71.8932 6.80134 72.9445 6.66047C73.4647 6.58933 74.9011 6.53493 76.5294 7.30906L77.1685 4.23346C76.2929 3.90428 75.1673 3.58905 73.766 3.58905C70.1716 3.58905 67.6434 5.56134 67.6231 8.38448ZM83.31 3.85407C82.6128 3.85407 82.025 4.27391 81.7628 4.91832L76.3078 18.3631H80.1237L80.8832 16.1969L85.5464 16.1969L85.9869 18.3631H89.3502L86.4153 3.85407H83.31ZM83.8438 7.77354L84.9451 13.2217L81.929 13.2217L83.8438 7.77354ZM62.9964 3.85407L59.9885 18.3631H63.6247L66.6313 3.85407L62.9964 3.85407ZM57.617 3.85407L53.8321 13.7295L52.3011 5.33259C52.1214 4.39526 51.412 3.85407 50.6242 3.85407H44.4367L44.3502 4.27531C45.6204 4.55985 47.0636 5.01875 47.9378 5.50973C48.4729 5.80962 48.6256 6.07185 48.8013 6.78461L51.7011 18.3631H55.5441L61.4357 3.85407H57.617Z" fill="#1B0D55"/>
</svg>
